<svg width="52" height="52" viewBox="0 0 52 52" fill="none" xmlns="http://www.w3.org/2000/svg">
<path d="M23.9101 21.0893C23.9101 22.6407 22.6415 23.9105 21.0889 23.9105H3.22113C1.66847 23.9105 0.399902 22.6407 0.399902 21.0893V3.22027C0.399902 1.66884 1.66847 0.399048 3.22113 0.399048H21.0889C22.6415 0.399048 23.9101 1.66884 23.9101 3.22027V21.0893Z" fill="black"/>
<path d="M51.4204 21.0893C51.4204 22.6407 50.1518 23.9105 48.5991 23.9105H30.7314C29.1787 23.9105 27.9102 22.6407 27.9102 21.0893V3.22027C27.9102 1.66884 29.1787 0.399048 30.7314 0.399048H48.5991C50.1518 0.399048 51.4204 1.66884 51.4204 3.22027V21.0893Z" fill="black"/>
<path d="M23.9101 48.6007C23.9101 50.1534 22.6415 51.4232 21.0889 51.4232H3.22113C1.66847 51.4232 0.399902 50.1534 0.399902 48.6007V30.733C0.399902 29.1803 1.66847 27.9105 3.22113 27.9105H21.0889C22.6415 27.9105 23.9101 29.1803 23.9101 30.733V48.6007Z" fill="black"/>
<path d="M51.4204 48.6007C51.4204 50.1534 50.1518 51.422 48.5991 51.422H30.7314C29.1787 51.422 27.9102 50.1534 27.9102 48.6007V30.733C27.9102 29.1803 29.1787 27.9105 30.7314 27.9105H48.5991C50.1518 27.9105 51.4204 29.1803 51.4204 30.733V48.6007Z" fill="black"/>
</svg>
